<?xml version="1.0" encoding="UTF-8"?>
<svg xmlns="http://www.w3.org/2000/svg" style="stroke-dasharray:none; shape-rendering:auto; font-family:'Arial'; text-rendering:auto; fill-opacity:1; color-interpolation:auto; color-rendering:auto; font-size:12; fill:black; stroke:black; image-rendering:auto; stroke-miterlimit:10; stroke-linecap:square; stroke-linejoin:miter; font-style:normal; stroke-width:1; stroke-dashoffset:0; font-weight:normal; stroke-opacity:1;" contentScriptType="text/ecmascript" preserveAspectRatio="xMidYMid meet" zoomAndPan="magnify" version="1.0" contentStyleType="text/css" xml:xlink="http://www.w3.org/1999/xlink" width="1021" height="481"><rect x="0" y="0" width="1021" height="481" ry="0" rx="0" style="stroke:#000000; fill:#FFFF80" /><g componentSequence="1"><text x="-240" y="7" transform="rotate(270)" text-anchor="middle" style="font-weight:bold;font-size:10px;stroke:none; fill:#434343"><tspan dy="14" x="-240">Expediente</tspan></text></g><g sequence="4"><ellipse cx="67" cy="57" rx="17" ry="17" stroke-width="1" style="fill:url(#linearGradient66FF6696FF96B6FFB6_1085324178);" stroke="336633" /></g><g sequence="11"><ellipse cx="67" cy="137" rx="17" ry="17" stroke-width="3" style="fill:url(#linearGradientFF6666FF9696FFB6B6_1316445684);" stroke="993333" /></g><g sequence="28"><rect x="170" y="110" width="106" height="56" ry="5" rx="5" style="fill:url(#linearGradientF8FBFEEDF5FCDEEDFAD4E7F8E2E5E9_1246286050);" stroke="191970" /></g><g componentSequence="28"><text x="223" y="127" text-anchor="middle" style="font-weight:bold;font-size:10px;stroke:none; fill:#333399"><tspan dy="14" x="223">Destinatário</tspan></text></g><g sequence="30"><polygon points=" 380 40 410 10 440 40 410 70 380 40" style="fill:url(#linearGradientFAFBFCFFFFCC_256530383);" stroke="000000" /></g><g componentSequence="30"><text x="410" y="80" text-anchor="middle" style="font-weight:bold;font-size:10px;stroke:none; fill:#333399"><tspan dy="14" x="410">Encamin</tspan><tspan dy="14" x="410">har</tspan><tspan dy="14" x="410">exped...</tspan></text></g><g sequence="34"><rect x="900" y="30" width="106" height="56" ry="5" rx="5" style="fill:url(#linearGradientF8FBFEEDF5FCDEEDFAD4E7F8E2E5E9_1248006559);" stroke="191970" /></g><g componentSequence="34"><text x="953" y="47" text-anchor="middle" style="font-weight:bold;font-size:10px;stroke:none; fill:#333399"><tspan dy="14" x="953">Grupo</tspan></text></g><g sequence="37"><rect x="360" y="245" width="106" height="56" ry="5" rx="5" style="fill:url(#linearGradientF8FBFEEDF5FCDEEDFAD4E7F8E2E5E9_1041202650);" stroke="191970" /></g><g componentSequence="37"><text x="413" y="262" text-anchor="middle" style="font-weight:bold;font-size:10px;stroke:none; fill:#333399"><tspan dy="14" x="413">Leitor</tspan></text></g><g sequence="39"><polygon points=" 780 250 810 220 840 250 810 280 780 250" style="fill:url(#linearGradientFAFBFCFFFFCC_852256057);" stroke="000000" /></g><g componentSequence="39"><text x="810" y="290" text-anchor="middle" style="font-weight:bold;font-size:10px;stroke:none; fill:#333399"><tspan dy="14" x="810">atribuind</tspan><tspan dy="14" x="810">o leitor</tspan></text></g><g componentSequence="31"><text x="287" y="63" style="font-size:10px;font-weight:none;stroke:none; fill:#333399" text-anchor="left" /></g><g componentSequence="32"><text x="137" y="137" style="font-size:10px;font-weight:none;stroke:none; fill:#333399" text-anchor="left" /></g><g componentSequence="33"><text x="338" y="99" style="font-size:10px;font-weight:none;stroke:none; fill:#333399" text-anchor="left" /></g><g componentSequence="35"><text x="681" y="34" style="font-size:10px;font-weight:none;stroke:none; fill:#333399" text-anchor="left" /></g><g componentSequence="36"><text x="682" y="99" style="font-size:10px;font-weight:none;stroke:none; fill:#333399" text-anchor="left" /></g><g componentSequence="38"><text x="421" y="185" style="font-size:10px;font-weight:none;stroke:none; fill:#333399" text-anchor="left" /></g><g componentSequence="40"><text x="633" y="272" style="font-size:10px;font-weight:none;stroke:none; fill:#333399" text-anchor="left"><tspan dy="14" x="633">Registrar leitor no processo</tspan></text></g><g componentSequence="41"><text x="634" y="370" style="font-size:10px;font-weight:none;stroke:none; fill:#333399" text-anchor="left" /></g><g componentSequence="42"><text x="684" y="99" style="font-size:10px;font-weight:none;stroke:none; fill:#333399" text-anchor="left" /></g><g componentSequence="43"><text x="555" y="420" style="font-size:10px;font-weight:none;stroke:none; fill:#333399" text-anchor="left" /></g><g componentSequence="44"><text x="633" y="198" style="font-size:10px;font-weight:none;stroke:none; fill:#333399" text-anchor="left" /></g><g componentSequence="45"><text x="242" y="63" style="font-size:10px;font-weight:none;stroke:none; fill:#333399" text-anchor="left" /></g><path style="fill:none; stroke:#000000;stroke-width:1" d="M84.0 57.0 L379.0 67.0" /><polygon style="fill:#000000; stroke:#000000;" points=" 369 62 379 67 369 72 371 67" /><path style="fill:none; stroke:#000000;stroke-width:1" d="M169.0 137.0 L84.0 137.0" /><polygon style="fill:#000000; stroke:#000000;" points=" 94 142 84 137 94 132 92 137" /><path style="fill:none; stroke:#000000;stroke-width:1" d="M953.0 86.0 L953.0 420.0 L67.0 420.0 L67.0 155.0" /><polygon style="fill:#000000; stroke:#000000;" points=" 62 165 67 155 72 165 67 163" /><path style="fill:none; stroke:#000000;stroke-width:1" d="M223.0 109.0 L223.0 61.0 L379.0 66.0" /><polygon style="fill:#000000; stroke:#000000;" points=" 369 61 379 66 369 71 371 66" /><path style="fill:none; stroke:#000000;stroke-width:1" d="M379.0 79.0 L276.0 118.0" /><polygon style="fill:#000000; stroke:#000000;" points=" 287 119 276 118 284 110 283 115" /><path style="fill:none; stroke:#000000;stroke-width:1" d="M440.0 64.0 L795.0 18.0 L899.0 44.0" /><polygon style="fill:#000000; stroke:#000000;" points=" 891 37 899 44 888 46 891 42" /><path style="fill:none; stroke:#000000;stroke-width:1" d="M410.0 126.0 L412.0 244.0" /><polygon style="fill:#000000; stroke:#000000;" points=" 417 234 412 244 407 234 412 236" /><path style="fill:none; stroke:#000000;stroke-width:1" d="M899.0 76.0 L792.0 113.0 L440.0 71.0" /><polygon style="fill:#000000; stroke:#000000;" points=" 449 77 440 71 451 67 448 72" /><path style="fill:none; stroke:#000000;stroke-width:1" d="M808.0 219.0 L804.0 115.0 L440.0 71.0" /><polygon style="fill:#000000; stroke:#000000;" points=" 449 77 440 71 451 67 448 72" /><path style="fill:none; stroke:#009600;stroke-width:1" d="M466.0 272.0 L779.0 271.0" /><polygon style="fill:#009600; stroke:#009600;" points=" 769 266 779 271 769 276 771 271" /><path style="fill:none; stroke:#000000;stroke-width:1" d="M466.0 253.0 L618.0 196.0 L779.0 259.0" /><polygon style="fill:#000000; stroke:#000000;" points=" 772 251 779 259 768 260 772 256" /><path style="fill:none; stroke:#000000;stroke-width:1" d="M779.0 287.0 L620.0 372.0 L466.0 298.0" /><polygon style="fill:#000000; stroke:#000000;" points=" 473 307 466 298 477 298 473 301" /><defs><linearGradient xmlns:xlink="http://www.w3.org/1999/xlink" xlink:href="#linearGradient66FF6696FF96B6FFB6" id="linearGradient66FF6696FF96B6FFB6_1085324178" x1="0" y1="40.0" x2="0" y2="75.0" gradientUnits="userSpaceOnUse" xlink:type="simple" xlink:actuate="onLoad" xlink:show="other" /><linearGradient id="linearGradient66FF6696FF96B6FFB6"><stop style="stop-color:#66FF66;stop-opacity:1;" offset="0.0" id="stop66FF66" /><stop style="stop-color:#96FF96;stop-opacity:1;" offset="0.5" id="stop96FF96" /><stop style="stop-color:#B6FFB6;stop-opacity:1;" offset="1.0" id="stopB6FFB6" /></linearGradient><linearGradient xmlns:xlink="http://www.w3.org/1999/xlink" xlink:href="#linearGradientFF6666FF9696FFB6B6" id="linearGradientFF6666FF9696FFB6B6_1316445684" x1="0" y1="120.0" x2="0" y2="155.0" gradientUnits="userSpaceOnUse" xlink:type="simple" xlink:actuate="onLoad" xlink:show="other" /><linearGradient id="linearGradientFF6666FF9696FFB6B6"><stop style="stop-color:#FF6666;stop-opacity:1;" offset="0.0" id="stopFF6666" /><stop style="stop-color:#FF9696;stop-opacity:1;" offset="0.5" id="stopFF9696" /><stop style="stop-color:#FFB6B6;stop-opacity:1;" offset="1.0" id="stopFFB6B6" /></linearGradient><linearGradient xmlns:xlink="http://www.w3.org/1999/xlink" xlink:href="#linearGradientF8FBFEEDF5FCDEEDFAD4E7F8E2E5E9" id="linearGradientF8FBFEEDF5FCDEEDFAD4E7F8E2E5E9_1246286050" x1="0" y1="110.0" x2="0" y2="216.0" gradientUnits="userSpaceOnUse" xlink:type="simple" xlink:actuate="onLoad" xlink:show="other" /><linearGradient id="linearGradientF8FBFEEDF5FCDEEDFAD4E7F8E2E5E9"><stop style="stop-color:#F8FBFE;stop-opacity:1;" offset="0.0" id="stopF8FBFE" /><stop style="stop-color:#EDF5FC;stop-opacity:1;" offset="0.25" id="stopEDF5FC" /><stop style="stop-color:#DEEDFA;stop-opacity:1;" offset="0.5" id="stopDEEDFA" /><stop style="stop-color:#D4E7F8;stop-opacity:1;" offset="0.75" id="stopD4E7F8" /><stop style="stop-color:#E2E5E9;stop-opacity:1;" offset="1.0" id="stopE2E5E9" /></linearGradient><linearGradient xmlns:xlink="http://www.w3.org/1999/xlink" xlink:href="#linearGradientFAFBFCFFFFCC" id="linearGradientFAFBFCFFFFCC_256530383" x1="0" y1="10.0" x2="0" y2="70.0" gradientUnits="userSpaceOnUse" xlink:type="simple" xlink:actuate="onLoad" xlink:show="other" /><linearGradient id="linearGradientFAFBFCFFFFCC"><stop style="stop-color:#FAFBFC;stop-opacity:1;" offset="0.0" id="stopFAFBFC" /><stop style="stop-color:#FFFFCC;stop-opacity:1;" offset="1.0" id="stopFFFFCC" /></linearGradient><linearGradient xmlns:xlink="http://www.w3.org/1999/xlink" xlink:href="#linearGradientF8FBFEEDF5FCDEEDFAD4E7F8E2E5E9" id="linearGradientF8FBFEEDF5FCDEEDFAD4E7F8E2E5E9_1248006559" x1="0" y1="30.0" x2="0" y2="136.0" gradientUnits="userSpaceOnUse" xlink:type="simple" xlink:actuate="onLoad" xlink:show="other" /><linearGradient xmlns:xlink="http://www.w3.org/1999/xlink" xlink:href="#linearGradientF8FBFEEDF5FCDEEDFAD4E7F8E2E5E9" id="linearGradientF8FBFEEDF5FCDEEDFAD4E7F8E2E5E9_1041202650" x1="0" y1="245.0" x2="0" y2="351.0" gradientUnits="userSpaceOnUse" xlink:type="simple" xlink:actuate="onLoad" xlink:show="other" /><linearGradient xmlns:xlink="http://www.w3.org/1999/xlink" xlink:href="#linearGradientFAFBFCFFFFCC" id="linearGradientFAFBFCFFFFCC_852256057" x1="0" y1="220.0" x2="0" y2="280.0" gradientUnits="userSpaceOnUse" xlink:type="simple" xlink:actuate="onLoad" xlink:show="other" /></defs></svg>
